CooperHewitt-Medium-Cyr.ufo
<glyph name="Io-cy" format="1">
  <advance width="600"/>
  <unicode hex="0401"/>
  <outline>
    <contour>
      <point x="268" y="936" type="line"/>
      <point x="169" y="936" type="line"/>
      <point x="169" y="854" type="line"/>
      <point x="268" y="854" type="line"/>
    </contour>
    <contour>
      <point x="431" y="936" type="line"/>
      <point x="332" y="936" type="line"/>
      <point x="332" y="854" type="line"/>
      <point x="431" y="854" type="line"/>
    </contour>
    <contour>
      <point x="67" y="780" type="line"/>
      <point x="67" y="0" type="line"/>
      <point x="517" y="0" type="line"/>
      <point x="517" y="92" type="line"/>
      <point x="171" y="92" type="line"/>
      <point x="171" y="352" type="line"/>
      <point x="467" y="352" type="line"/>
      <point x="467" y="444" type="line"/>
      <point x="171" y="444" type="line"/>
      <point x="171" y="688" type="line"/>
      <point x="517" y="688" type="line"/>
      <point x="517" y="780" type="line"/>
    </contour>
  </outline>
</glyph>
<glyph name="Yi-cy" format="1">
  <advance width="376"/>
  <unicode hex="0407"/>
  <outline>
    <contour>
      <point x="243" y="780" type="line"/>
      <point x="139" y="780" type="line"/>
      <point x="139" y="0" type="line"/>
      <point x="243" y="0" type="line"/>
    </contour>
    <component base="dieresis.cap" xOffset="-62"/>
  </outline>
</glyph>
<glyph name="Be-cy" format="1">
  <advance width="600"/>
  <unicode hex="0411"/>
  <outline>
    <contour>
      <point x="171" y="476" type="line"/>
      <point x="171" y="780" type="line"/>
      <point x="67" y="780" type="line"/>
      <point x="67" y="0" type="line"/>
      <point x="298" y="0" type="line" smooth="yes"/>
      <point x="415" y="0"/>
      <point x="548" y="39"/>
      <point x="548" y="228" type="curve" smooth="yes"/>
      <point x="548" y="248" type="line" smooth="yes"/>
      <point x="548" y="438"/>
      <point x="415" y="476"/>
      <point x="298" y="476" type="curve" smooth="yes"/>
    </contour>
    <contour>
      <point x="171" y="385" type="line"/>
      <point x="301" y="385" type="line" smooth="yes"/>
      <point x="361" y="385"/>
      <point x="442" y="363"/>
      <point x="442" y="245" type="curve" smooth="yes"/>
      <point x="442" y="232" type="line" smooth="yes"/>
      <point x="442" y="114"/>
      <point x="361" y="92"/>
      <point x="301" y="92" type="curve" smooth="yes"/>
      <point x="171" y="92" type="line"/>
    </contour>
    <contour>
      <point x="548" y="674" type="line"/>
      <point x="548" y="778" type="line"/>
      <point x="67" y="778" type="line"/>
      <point x="67" y="674" type="line"/>
    </contour>
  </outline>
</glyph>
<glyph name="Ge-cy" format="1">
  <advance width="519"/>
  <unicode hex="0413"/>
  <outline>
    <contour>
      <point x="486" y="780" type="line"/>
      <point x="67" y="780" type="line"/>
      <point x="67" y="0" type="line"/>
      <point x="171" y="0" type="line"/>
      <point x="171" y="688" type="line"/>
      <point x="486" y="688" type="line"/>
    </contour>
  </outline>
</glyph>
<glyph name="De-cy" format="1">
  <advance width="641"/>
  <unicode hex="0414"/>
  <outline>
    <contour>
      <point x="20" y="103" type="curve"/>
      <point x="21" y="11" type="line"/>
      <point x="22" y="11"/>
      <point x="21" y="11"/>
      <point x="22" y="11" type="curve" smooth="yes"/>
      <point x="204" y="11"/>
      <point x="228" y="85"/>
      <point x="228" y="266" type="curve" smooth="yes"/>
      <point x="228" y="780" type="line"/>
      <point x="137" y="780" type="line"/>
      <point x="137" y="271" type="line" smooth="yes"/>
      <point x="137" y="147"/>
      <point x="131" y="103"/>
      <point x="22" y="103" type="curve" smooth="yes"/>
      <point x="21" y="103"/>
      <point x="21" y="103"/>
    </contour>
    <contour>
      <point x="22" y="11" type="line"/>
      <point x="23" y="103" type="line"/>
    </contour>
    <contour>
      <point x="227" y="780" type="line"/>
      <point x="227" y="676" type="line"/>
      <point x="424" y="676" type="line"/>
      <point x="424" y="0" type="line"/>
      <point x="516" y="0" type="line"/>
      <point x="516" y="780" type="line"/>
    </contour>
    <contour>
      <point x="603" y="0" type="line"/>
      <point x="603" y="104" type="line"/>
      <point x="20" y="104" type="line"/>
      <point x="20" y="0" type="line"/>
    </contour>
    <contour>
      <point x="20" y="0" type="line"/>
      <point x="20" y="-96" type="line"/>
      <point x="110" y="-96" type="line"/>
      <point x="110" y="0" type="line"/>
    </contour>
    <contour>
      <point x="513" y="0" type="line"/>
      <point x="513" y="-96" type="line"/>
      <point x="603" y="-96" type="line"/>
      <point x="603" y="0" type="line"/>
    </contour>
  </outline>
</glyph>
<glyph name="Ie-cy" format="1">
  <advance width="557"/>
  <unicode hex="0415"/>
  <outline>
    <contour>
      <point x="67" y="780" type="line"/>
      <point x="67" y="0" type="line"/>
      <point x="517" y="0" type="line"/>
      <point x="517" y="92" type="line"/>
      <point x="171" y="92" type="line"/>
      <point x="171" y="352" type="line"/>
      <point x="467" y="352" type="line"/>
      <point x="467" y="444" type="line"/>
      <point x="171" y="444" type="line"/>
      <point x="171" y="688" type="line"/>
      <point x="517" y="688" type="line"/>
      <point x="517" y="780" type="line"/>
    </contour>
  </outline>
</glyph>
<glyph name="Zhe-cy" format="1">
  <advance width="900"/>
  <unicode hex="0416"/>
  <outline>
    <contour>
      <point x="374" y="780" type="line"/>
      <point x="374" y="0" type="line"/>
      <point x="478" y="0" type="line"/>
      <point x="478" y="780" type="line"/>
    </contour>
    <contour>
      <point x="272" y="454" type="line"/>
      <point x="272" y="362" type="line"/>
      <point x="575" y="362" type="line"/>
      <point x="575" y="454" type="line"/>
    </contour>
    <contour>
      <point x="106" y="0" type="line"/>
      <point x="354" y="408" type="line"/>
      <point x="116" y="780" type="line"/>
      <point x="-10" y="780" type="line"/>
      <point x="238" y="408" type="line"/>
      <point x="-10" y="0" type="line"/>
    </contour>
    <contour>
      <point x="747" y="0" type="line"/>
      <point x="863" y="0" type="line"/>
      <point x="615" y="408" type="line"/>
      <point x="863" y="780" type="line"/>
      <point x="737" y="780" type="line"/>
      <point x="499" y="408" type="line"/>
    </contour>
  </outline>
</glyph>
<glyph name="Ze-cy" format="1">
  <advance width="607"/>
  <unicode hex="0417"/>
  <outline>
    <contour>
      <point x="147" y="250" type="curve"/>
      <point x="45" y="250" type="line"/>
      <point x="45" y="238" type="line" smooth="yes"/>
      <point x="45" y="82"/>
      <point x="126" y="-12"/>
      <point x="307" y="-12" type="curve" smooth="yes"/>
      <point x="471" y="-12"/>
      <point x="563" y="88"/>
      <point x="563" y="203" type="curve" smooth="yes"/>
      <point x="563" y="220" type="line" smooth="yes"/>
      <point x="563" y="312"/>
      <point x="515" y="370"/>
      <point x="450" y="398" type="curve"/>
      <point x="512" y="426"/>
      <point x="558" y="480"/>
      <point x="558" y="568" type="curve" smooth="yes"/>
      <point x="558" y="585" type="line" smooth="yes"/>
      <point x="558" y="696"/>
      <point x="482" y="792"/>
      <point x="310" y="792" type="curve" smooth="yes"/>
      <point x="137" y="792"/>
      <point x="57" y="702"/>
      <point x="57" y="552" type="curve" smooth="yes"/>
      <point x="57" y="530" type="line"/>
      <point x="159" y="530" type="line"/>
      <point x="159" y="660"/>
      <point x="212" y="701"/>
      <point x="305" y="701" type="curve" smooth="yes"/>
      <point x="315" y="701" type="line" smooth="yes"/>
      <point x="402" y="701"/>
      <point x="455" y="651"/>
      <point x="455" y="573" type="curve" smooth="yes"/>
      <point x="455" y="565" type="line" smooth="yes"/>
      <point x="455" y="481"/>
      <point x="397" y="443"/>
      <point x="315" y="443" type="curve" smooth="yes"/>
      <point x="203" y="443" type="line"/>
      <point x="203" y="353" type="line"/>
      <point x="319" y="353" type="line" smooth="yes"/>
      <point x="402" y="353"/>
      <point x="460" y="310"/>
      <point x="460" y="224" type="curve" smooth="yes"/>
      <point x="460" y="211" type="line" smooth="yes"/>
      <point x="460" y="120"/>
      <point x="391" y="79"/>
      <point x="312" y="79" type="curve" smooth="yes"/>
      <point x="302" y="79" type="line" smooth="yes"/>
      <point x="213" y="79"/>
      <point x="147" y="129"/>
    </contour>
  </outline>
</glyph>
<glyph name="Ii-cy" format="1">
  <advance width="667"/>
  <unicode hex="0418"/>
  <outline>
    <contour>
      <point x="67" y="780" type="line"/>
      <point x="67" y="0" type="line"/>
      <point x="178" y="0" type="line"/>
      <point x="505" y="596" type="line"/>
      <point x="501" y="423" type="line"/>
      <point x="501" y="0" type="line"/>
      <point x="600" y="0" type="line"/>
      <point x="600" y="780" type="line"/>
      <point x="489" y="780" type="line"/>
      <point x="162" y="184" type="line"/>
      <point x="166" y="357" type="line"/>
      <point x="166" y="780" type="line"/>
    </contour>
  </outline>
</glyph>
<glyph name="Iishort-cy" format="1">
  <advance width="600"/>
  <unicode hex="0419"/>
  <outline>
    <contour>
      <point x="67" y="780" type="line"/>
      <point x="67" y="0" type="line"/>
      <point x="178" y="0" type="line"/>
      <point x="505" y="596" type="line"/>
      <point x="501" y="423" type="line"/>
      <point x="501" y="0" type="line"/>
      <point x="600" y="0" type="line"/>
      <point x="600" y="780" type="line"/>
      <point x="489" y="780" type="line"/>
      <point x="162" y="184" type="line"/>
      <point x="166" y="357" type="line"/>
      <point x="166" y="780" type="line"/>
    </contour>
    <contour>
      <point x="342" y="827" type="curve" smooth="yes"/>
      <point x="462" y="827"/>
      <point x="501" y="881"/>
      <point x="501" y="950" type="curve"/>
      <point x="426" y="950" type="line"/>
      <point x="426" y="913"/>
      <point x="401" y="890"/>
      <point x="342" y="890" type="curve" smooth="yes"/>
      <point x="283" y="890"/>
      <point x="258" y="913"/>
      <point x="258" y="950" type="curve"/>
      <point x="183" y="950" type="line"/>
      <point x="183" y="881"/>
      <point x="222" y="827"/>
    </contour>
  </outline>
</glyph>
<glyph name="Ka-cy" format="1">
  <advance width="600"/>
  <unicode hex="041A"/>
  <outline>
    <contour>
      <point x="171" y="780" type="line"/>
      <point x="67" y="780" type="line"/>
      <point x="67" y="0" type="line"/>
      <point x="171" y="0" type="line"/>
      <point x="171" y="234" type="line"/>
      <point x="263" y="365" type="line"/>
      <point x="439" y="0" type="line"/>
      <point x="555" y="0" type="line"/>
      <point x="328" y="457" type="line"/>
      <point x="555" y="780" type="line"/>
      <point x="429" y="780" type="line"/>
      <point x="171" y="395" type="line"/>
    </contour>
  </outline>
</glyph>
<glyph name="El-cy" format="1">
  <advance width="668"/>
  <unicode hex="041B"/>
  <outline>
    <contour>
      <point x="23" y="80" type="curve"/>
      <point x="23" y="-12" type="line"/>
      <point x="24" y="-12"/>
      <point x="24" y="-12"/>
      <point x="25" y="-12" type="curve" smooth="yes"/>
      <point x="181" y="-12"/>
      <point x="252" y="135"/>
      <point x="262" y="320" type="curve" smooth="yes"/>
      <point x="286" y="780" type="line"/>
      <point x="182" y="780" type="line"/>
      <point x="162" y="404" type="line" smooth="yes"/>
      <point x="153" y="229"/>
      <point x="134" y="80"/>
      <point x="25" y="80" type="curve" smooth="yes"/>
      <point x="24" y="80"/>
      <point x="24" y="80"/>
    </contour>
    <contour>
      <point x="255" y="780" type="line"/>
      <point x="250" y="676" type="line"/>
      <point x="497" y="676" type="line"/>
      <point x="497" y="0" type="line"/>
      <point x="601" y="0" type="line"/>
      <point x="601" y="780" type="line"/>
    </contour>
  </outline>
</glyph>
<glyph name="Pe-cy" format="1">
  <advance width="692"/>
  <unicode hex="041F"/>
  <outline>
    <contour>
      <point x="67" y="780" type="line"/>
      <point x="67" y="0" type="line"/>
      <point x="159" y="0" type="line"/>
      <point x="159" y="676" type="line"/>
      <point x="533" y="676" type="line"/>
      <point x="533" y="0" type="line"/>
      <point x="625" y="0" type="line"/>
      <point x="625" y="780" type="line"/>
    </contour>
  </outline>
</glyph>
<glyph name="U-cy" format="1">
  <advance width="600"/>
  <unicode hex="0423"/>
  <outline>
    <contour>
      <point x="248" y="0" type="line"/>
      <point x="578" y="780" type="line"/>
      <point x="465" y="780" type="line"/>
      <point x="297" y="366" type="line"/>
      <point x="129" y="780" type="line"/>
      <point x="16" y="780" type="line"/>
      <point x="245" y="237" type="line"/>
      <point x="144" y="0" type="line"/>
    </contour>
  </outline>
</glyph>
<glyph name="Ef-cy" format="1">
  <advance width="879"/>
  <unicode hex="0424"/>
  <outline>
    <contour>
      <point x="842" y="391" type="curve" smooth="yes"/>
      <point x="842" y="578"/>
      <point x="730" y="669"/>
      <point x="460" y="669" type="curve" smooth="yes"/>
      <point x="420" y="669" type="line" smooth="yes"/>
      <point x="150" y="669"/>
      <point x="37" y="578"/>
      <point x="37" y="391" type="curve" smooth="yes"/>
      <point x="37" y="203"/>
      <point x="150" y="112"/>
      <point x="420" y="112" type="curve" smooth="yes"/>
      <point x="460" y="112" type="line" smooth="yes"/>
      <point x="730" y="112"/>
      <point x="842" y="203"/>
    </contour>
    <contour>
      <point x="737" y="387" type="line" smooth="yes"/>
      <point x="737" y="267"/>
      <point x="658" y="209"/>
      <point x="460" y="209" type="curve" smooth="yes"/>
      <point x="420" y="209" type="line" smooth="yes"/>
      <point x="222" y="209"/>
      <point x="143" y="267"/>
      <point x="143" y="387" type="curve" smooth="yes"/>
      <point x="143" y="394" type="line" smooth="yes"/>
      <point x="143" y="514"/>
      <point x="222" y="572"/>
      <point x="420" y="572" type="curve" smooth="yes"/>
      <point x="460" y="572" type="line" smooth="yes"/>
      <point x="658" y="572"/>
      <point x="737" y="514"/>
      <point x="737" y="394" type="curve" smooth="yes"/>
    </contour>
    <contour>
      <point x="490" y="780" type="line"/>
      <point x="386" y="780" type="line"/>
      <point x="386" y="0" type="line"/>
      <point x="490" y="0" type="line"/>
    </contour>
  </outline>
</glyph>
<glyph name="Tse-cy" format="1">
  <advance width="769"/>
  <unicode hex="0426"/>
  <outline>
    <contour>
      <point x="67" y="0" type="line"/>
      <point x="625" y="0" type="line"/>
      <point x="625" y="780" type="line"/>
      <point x="533" y="780" type="line"/>
      <point x="533" y="104" type="line"/>
      <point x="159" y="104" type="line"/>
      <point x="159" y="780" type="line"/>
      <point x="67" y="780" type="line"/>
    </contour>
    <component base="hvostik" xOffset="-63"/>
  </outline>
</glyph>
<glyph name="Che-cy" format="1">
  <advance width="588"/>
  <unicode hex="0427"/>
  <outline>
    <contour>
      <point x="173" y="780" type="curve"/>
      <point x="67" y="780" type="line"/>
      <point x="67" y="779"/>
      <point x="67" y="778"/>
      <point x="67" y="776" type="curve" smooth="yes"/>
      <point x="67" y="532" type="line" smooth="yes"/>
      <point x="67" y="342"/>
      <point x="191" y="271"/>
      <point x="382" y="314" type="curve" smooth="yes"/>
      <point x="444" y="328" type="line"/>
      <point x="444" y="0" type="line"/>
      <point x="548" y="0" type="line"/>
      <point x="548" y="780" type="line"/>
      <point x="444" y="780" type="line"/>
      <point x="444" y="417" type="line"/>
      <point x="389" y="408" type="line" smooth="yes"/>
      <point x="254" y="385"/>
      <point x="173" y="417"/>
      <point x="173" y="535" type="curve" smooth="yes"/>
      <point x="173" y="772" type="line" smooth="yes"/>
      <point x="173" y="775"/>
      <point x="173" y="778"/>
    </contour>
  </outline>
</glyph>
<glyph name="Sha-cy" format="1">
  <advance width="775"/>
  <unicode hex="0428"/>
  <outline>
    <contour>
      <point x="67" y="0" type="line"/>
      <point x="735" y="0" type="line"/>
      <point x="735" y="780" type="line"/>
      <point x="643" y="780" type="line"/>
      <point x="643" y="104" type="line"/>
      <point x="455" y="104" type="line"/>
      <point x="455" y="530" type="line"/>
      <point x="363" y="530" type="line"/>
      <point x="363" y="104" type="line"/>
      <point x="159" y="104" type="line"/>
      <point x="159" y="780" type="line"/>
      <point x="67" y="780" type="line"/>
    </contour>
  </outline>
</glyph>
<glyph name="Shcha-cy" format="1">
  <advance width="862"/>
  <unicode hex="0429"/>
  <outline>
    <contour>
      <point x="67" y="0" type="line"/>
      <point x="735" y="0" type="line"/>
      <point x="735" y="780" type="line"/>
      <point x="643" y="780" type="line"/>
      <point x="643" y="104" type="line"/>
      <point x="455" y="104" type="line"/>
      <point x="455" y="780" type="line"/>
      <point x="363" y="780" type="line"/>
      <point x="363" y="104" type="line"/>
      <point x="159" y="104" type="line"/>
      <point x="159" y="780" type="line"/>
      <point x="67" y="780" type="line"/>
    </contour>
    <contour>
      <point x="718" y="105" type="line"/>
      <point x="718" y="-130" type="line"/>
      <point x="812" y="-130" type="line"/>
      <point x="812" y="105" type="line"/>
    </contour>
  </outline>
</glyph>
<glyph name="Hardsign-cy" format="1">
  <advance width="656"/>
  <unicode hex="042A"/>
  <outline>
    <contour>
      <point x="227" y="476" type="line"/>
      <point x="227" y="780" type="line"/>
      <point x="123" y="780" type="line"/>
      <point x="123" y="0" type="line"/>
      <point x="354" y="0" type="line" smooth="yes"/>
      <point x="471" y="0"/>
      <point x="604" y="39"/>
      <point x="604" y="228" type="curve" smooth="yes"/>
      <point x="604" y="248" type="line" smooth="yes"/>
      <point x="604" y="438"/>
      <point x="471" y="476"/>
      <point x="354" y="476" type="curve" smooth="yes"/>
    </contour>
    <contour>
      <point x="227" y="385" type="line"/>
      <point x="357" y="385" type="line" smooth="yes"/>
      <point x="417" y="385"/>
      <point x="498" y="363"/>
      <point x="498" y="245" type="curve" smooth="yes"/>
      <point x="498" y="232" type="line" smooth="yes"/>
      <point x="498" y="114"/>
      <point x="417" y="92"/>
      <point x="357" y="92" type="curve" smooth="yes"/>
      <point x="227" y="92" type="line"/>
    </contour>
    <contour>
      <point x="33" y="780" type="line"/>
      <point x="33" y="684" type="line"/>
      <point x="123" y="684" type="line"/>
      <point x="123" y="780" type="line"/>
    </contour>
  </outline>
</glyph>
<glyph name="Yeru-cy" format="1">
  <advance width="783"/>
  <unicode hex="042B"/>
  <outline>
    <contour>
      <point x="171" y="476" type="line"/>
      <point x="171" y="780" type="line"/>
      <point x="67" y="780" type="line"/>
      <point x="67" y="0" type="line"/>
      <point x="298" y="0" type="line" smooth="yes"/>
      <point x="415" y="0"/>
      <point x="548" y="39"/>
      <point x="548" y="228" type="curve" smooth="yes"/>
      <point x="548" y="248" type="line" smooth="yes"/>
      <point x="548" y="438"/>
      <point x="415" y="476"/>
      <point x="298" y="476" type="curve" smooth="yes"/>
    </contour>
    <contour>
      <point x="171" y="385" type="line"/>
      <point x="301" y="385" type="line" smooth="yes"/>
      <point x="361" y="385"/>
      <point x="442" y="363"/>
      <point x="442" y="245" type="curve" smooth="yes"/>
      <point x="442" y="232" type="line" smooth="yes"/>
      <point x="442" y="114"/>
      <point x="361" y="92"/>
      <point x="301" y="92" type="curve" smooth="yes"/>
      <point x="171" y="92" type="line"/>
    </contour>
    <contour>
      <point x="716" y="780" type="line"/>
      <point x="612" y="780" type="line"/>
      <point x="612" y="0" type="line"/>
      <point x="716" y="0" type="line"/>
    </contour>
  </outline>
</glyph>
<glyph name="Ereversed-cy" format="1">
  <advance width="633"/>
  <unicode hex="042D"/>
  <outline>
    <contour>
      <point x="476" y="370" type="line" smooth="yes"/>
      <point x="476" y="172"/>
      <point x="430" y="80"/>
      <point x="308" y="80" type="curve" smooth="yes"/>
      <point x="301" y="80" type="line" smooth="yes"/>
      <point x="197" y="80"/>
      <point x="155" y="146"/>
      <point x="155" y="259" type="curve"/>
      <point x="50" y="259" type="line"/>
      <point x="50" y="249" type="line" smooth="yes"/>
      <point x="50" y="74"/>
      <point x="135" y="-12"/>
      <point x="308" y="-12" type="curve" smooth="yes"/>
      <point x="495" y="-12"/>
      <point x="583" y="100"/>
      <point x="583" y="370" type="curve" smooth="yes"/>
      <point x="583" y="410" type="line" smooth="yes"/>
      <point x="583" y="680"/>
      <point x="495" y="792"/>
      <point x="308" y="792" type="curve" smooth="yes"/>
      <point x="135" y="792"/>
      <point x="50" y="706"/>
      <point x="50" y="522" type="curve" smooth="yes"/>
      <point x="50" y="491" type="line"/>
      <point x="155" y="491" type="line"/>
      <point x="155" y="633"/>
      <point x="195" y="700"/>
      <point x="301" y="700" type="curve" smooth="yes"/>
      <point x="308" y="700" type="line" smooth="yes"/>
      <point x="429" y="700"/>
      <point x="476" y="608"/>
      <point x="476" y="410" type="curve" smooth="yes"/>
    </contour>
    <contour>
      <point x="242" y="348" type="line"/>
      <point x="574" y="348" type="line"/>
      <point x="574" y="438" type="line"/>
      <point x="242" y="438" type="line"/>
    </contour>
  </outline>
</glyph>
<glyph name="Iu-cy" format="1">
  <advance width="855"/>
  <unicode hex="042E"/>
  <outline>
    <contour>
      <point x="537" y="-12" type="curve" smooth="yes"/>
      <point x="724" y="-12"/>
      <point x="815" y="100"/>
      <point x="815" y="370" type="curve" smooth="yes"/>
      <point x="815" y="410" type="line" smooth="yes"/>
      <point x="815" y="680"/>
      <point x="724" y="792"/>
      <point x="537" y="792" type="curve" smooth="yes"/>
      <point x="349" y="792"/>
      <point x="258" y="680"/>
      <point x="258" y="410" type="curve" smooth="yes"/>
      <point x="258" y="370" type="line" smooth="yes"/>
      <point x="258" y="100"/>
      <point x="349" y="-12"/>
    </contour>
    <contour>
      <point x="533" y="80" type="line" smooth="yes"/>
      <point x="413" y="80"/>
      <point x="365" y="172"/>
      <point x="365" y="370" type="curve" smooth="yes"/>
      <point x="365" y="410" type="line" smooth="yes"/>
      <point x="365" y="608"/>
      <point x="413" y="700"/>
      <point x="533" y="700" type="curve" smooth="yes"/>
      <point x="540" y="700" type="line" smooth="yes"/>
      <point x="660" y="700"/>
      <point x="708" y="608"/>
      <point x="708" y="410" type="curve" smooth="yes"/>
      <point x="708" y="370" type="line" smooth="yes"/>
      <point x="708" y="172"/>
      <point x="660" y="80"/>
      <point x="540" y="80" type="curve" smooth="yes"/>
    </contour>
    <contour>
      <point x="154" y="780" type="line"/>
      <point x="50" y="780" type="line"/>
      <point x="50" y="0" type="line"/>
      <point x="154" y="0" type="line"/>
    </contour>
    <contour>
      <point x="105" y="348" type="line"/>
      <point x="335" y="348" type="line"/>
      <point x="335" y="438" type="line"/>
      <point x="105" y="438" type="line"/>
    </contour>
  </outline>
</glyph>
<glyph name="Ia-cy" format="1">
  <advance width="600"/>
  <unicode hex="042F"/>
  <outline>
    <contour>
      <point x="444" y="304" type="line"/>
      <point x="444" y="0" type="line"/>
      <point x="548" y="0" type="line"/>
      <point x="548" y="780" type="line"/>
      <point x="317" y="780" type="line" smooth="yes"/>
      <point x="200" y="780"/>
      <point x="67" y="741"/>
      <point x="67" y="552" type="curve" smooth="yes"/>
      <point x="67" y="532" type="line" smooth="yes"/>
      <point x="67" y="407"/>
      <point x="125" y="348"/>
      <point x="197" y="322" type="curve"/>
      <point x="67" y="0" type="line"/>
      <point x="180" y="0" type="line"/>
      <point x="298" y="304" type="line"/>
    </contour>
    <contour>
      <point x="444" y="395" type="line"/>
      <point x="314" y="395" type="line" smooth="yes"/>
      <point x="254" y="395"/>
      <point x="173" y="417"/>
      <point x="173" y="535" type="curve" smooth="yes"/>
      <point x="173" y="548" type="line" smooth="yes"/>
      <point x="173" y="666"/>
      <point x="254" y="688"/>
      <point x="314" y="688" type="curve" smooth="yes"/>
      <point x="444" y="688" type="line"/>
    </contour>
  </outline>
</glyph>
<glyph name="be-cy" format="1">
  <advance width="548"/>
  <unicode hex="0431"/>
  <outline>
    <contour>
      <point x="125" y="466" type="curve"/>
      <point x="135" y="563"/>
      <point x="224" y="612"/>
      <point x="287" y="621" type="curve" smooth="yes"/>
      <point x="397" y="637"/>
      <point x="424" y="633"/>
      <point x="460" y="671" type="curve" smooth="yes"/>
      <point x="493" y="705"/>
      <point x="488" y="733"/>
      <point x="488" y="750" type="curve"/>
      <point x="375" y="750" type="line"/>
      <point x="368" y="682"/>
      <point x="260" y="722"/>
      <point x="162" y="662" type="curve" smooth="yes"/>
      <point x="55" y="597"/>
      <point x="42" y="444"/>
      <point x="42" y="301" type="curve"/>
      <point x="101" y="331"/>
      <point x="119" y="418"/>
    </contour>
    <contour>
      <point x="274" y="-12" type="curve" smooth="yes"/>
      <point x="435" y="-12"/>
      <point x="506" y="102"/>
      <point x="506" y="251" type="curve" smooth="yes"/>
      <point x="506" y="279" type="line" smooth="yes"/>
      <point x="506" y="428"/>
      <point x="435" y="542"/>
      <point x="274" y="542" type="curve" smooth="yes"/>
      <point x="218" y="542"/>
      <point x="146" y="512"/>
      <point x="102" y="430" type="curve" smooth="yes"/>
      <point x="56" y="345"/>
      <point x="42" y="376"/>
      <point x="42" y="279" type="curve" smooth="yes"/>
      <point x="42" y="251" type="line" smooth="yes"/>
      <point x="42" y="102"/>
      <point x="113" y="-12"/>
    </contour>
    <contour>
      <point x="274" y="76" type="curve" smooth="yes"/>
      <point x="184" y="76"/>
      <point x="143" y="145"/>
      <point x="143" y="251" type="curve" smooth="yes"/>
      <point x="143" y="279" type="line" smooth="yes"/>
      <point x="143" y="385"/>
      <point x="184" y="454"/>
      <point x="274" y="454" type="curve" smooth="yes"/>
      <point x="364" y="454"/>
      <point x="405" y="385"/>
      <point x="405" y="279" type="curve" smooth="yes"/>
      <point x="405" y="251" type="line" smooth="yes"/>
      <point x="405" y="145"/>
      <point x="364" y="76"/>
    </contour>
    <contour>
      <point x="120" y="473" type="line"/>
      <point x="116" y="456" type="line"/>
      <point x="130" y="451" type="line"/>
      <point x="134" y="468" type="line"/>
    </contour>
  </outline>
</glyph>
<glyph name="ve-cy" format="1">
  <advance width="580"/>
  <unicode hex="0432"/>
  <outline>
    <contour>
      <point x="60" y="1" type="line"/>
      <point x="157" y="1" type="line"/>
      <point x="157" y="530" type="line"/>
      <point x="60" y="530" type="line"/>
    </contour>
    <contour>
      <point x="153" y="234" type="line"/>
      <point x="217" y="234"/>
      <point x="282" y="235"/>
      <point x="323" y="234" type="curve" smooth="yes"/>
      <point x="396" y="232"/>
      <point x="422" y="190"/>
      <point x="422" y="155" type="curve" smooth="yes"/>
      <point x="422" y="118"/>
      <point x="400" y="77"/>
      <point x="323" y="77" type="curve" smooth="yes"/>
      <point x="291" y="77"/>
      <point x="210" y="77"/>
      <point x="156" y="77" type="curve"/>
      <point x="156" y="1" type="line"/>
      <point x="207" y="1"/>
      <point x="304" y="2"/>
      <point x="341" y="2" type="curve" smooth="yes"/>
      <point x="439" y="2"/>
      <point x="519" y="56"/>
      <point x="519" y="154" type="curve" smooth="yes"/>
      <point x="519" y="247"/>
      <point x="442" y="310"/>
      <point x="341" y="310" type="curve" smooth="yes"/>
      <point x="298" y="310"/>
      <point x="173" y="310"/>
      <point x="153" y="310" type="curve"/>
    </contour>
    <contour>
      <point x="153" y="454" type="line"/>
      <point x="217" y="454"/>
      <point x="273" y="454"/>
      <point x="314" y="454" type="curve" smooth="yes"/>
      <point x="358" y="454"/>
      <point x="394" y="428"/>
      <point x="394" y="382" type="curve" smooth="yes"/>
      <point x="394" y="346"/>
      <point x="368" y="310"/>
      <point x="298" y="310" type="curve" smooth="yes"/>
      <point x="266" y="310"/>
      <point x="210" y="310"/>
      <point x="156" y="310" type="curve"/>
      <point x="156" y="234" type="line"/>
      <point x="207" y="234"/>
      <point x="244" y="258"/>
      <point x="281" y="258" type="curve" smooth="yes"/>
      <point x="389" y="258"/>
      <point x="488" y="294"/>
      <point x="488" y="382" type="curve" smooth="yes"/>
      <point x="488" y="463"/>
      <point x="442" y="530"/>
      <point x="332" y="530" type="curve" smooth="yes"/>
      <point x="289" y="530"/>
      <point x="173" y="530"/>
      <point x="153" y="530" type="curve"/>
    </contour>
  </outline>
</glyph>
<glyph name="ge-cy" format="1">
  <advance width="448"/>
  <unicode hex="0433"/>
  <outline>
    <contour>
      <point x="62" y="530" type="line"/>
      <point x="62" y="2" type="line"/>
      <point x="159" y="2" type="line"/>
      <point x="159" y="530" type="line"/>
    </contour>
    <contour>
      <point x="117" y="530" type="line"/>
      <point x="117" y="438" type="line"/>
      <point x="420" y="438" type="line"/>
      <point x="420" y="530" type="line"/>
    </contour>
  </outline>
</glyph>
<glyph name="de-cy" format="1">
  <advance width="584"/>
  <unicode hex="0434"/>
  <outline>
    <contour>
      <point x="545" y="0" type="line"/>
      <point x="545" y="96" type="line"/>
      <point x="22" y="96" type="line"/>
      <point x="22" y="0" type="line"/>
    </contour>
    <contour>
      <point x="22" y="0" type="line"/>
      <point x="22" y="-126" type="line"/>
      <point x="112" y="-126" type="line"/>
      <point x="112" y="0" type="line"/>
    </contour>
    <contour>
      <point x="455" y="0" type="line"/>
      <point x="455" y="-126" type="line"/>
      <point x="545" y="-126" type="line"/>
      <point x="545" y="0" type="line"/>
    </contour>
    <contour>
      <point x="41" y="80" type="curve"/>
      <point x="41" y="-12" type="line"/>
      <point x="42" y="-12"/>
      <point x="42" y="8"/>
      <point x="43" y="8" type="curve"/>
      <point x="96" y="8"/>
      <point x="126" y="16"/>
      <point x="156" y="42" type="curve" smooth="yes"/>
      <point x="216" y="94"/>
      <point x="240" y="208"/>
      <point x="240" y="530" type="curve"/>
      <point x="150" y="530" type="line"/>
      <point x="137" y="119"/>
      <point x="104" y="80"/>
      <point x="43" y="80" type="curve" smooth="yes"/>
      <point x="42" y="80"/>
      <point x="42" y="80"/>
    </contour>
    <contour>
      <point x="191" y="530" type="line"/>
      <point x="186" y="436" type="line"/>
      <point x="390" y="436" type="line"/>
      <point x="390" y="0" type="line"/>
      <point x="482" y="0" type="line"/>
      <point x="482" y="530" type="line"/>
    </contour>
  </outline>
</glyph>
<glyph name="zhe-cy" format="1">
  <advance width="671"/>
  <unicode hex="0436"/>
  <outline>
    <contour>
      <point x="285" y="1" type="line"/>
      <point x="384" y="1" type="line"/>
      <point x="384" y="530" type="line"/>
      <point x="285" y="530" type="line"/>
    </contour>
    <contour>
      <point x="414" y="233" type="line"/>
      <point x="532" y="0" type="line"/>
      <point x="647" y="0" type="line"/>
      <point x="492" y="298" type="line"/>
      <point x="637" y="530" type="line"/>
      <point x="523" y="530" type="line"/>
      <point x="339" y="199" type="line"/>
      <point x="371" y="179" type="line"/>
    </contour>
    <contour>
      <point x="257" y="233" type="line"/>
      <point x="300" y="179" type="line"/>
      <point x="332" y="199" type="line"/>
      <point x="148" y="530" type="line"/>
      <point x="34" y="530" type="line"/>
      <point x="179" y="298" type="line"/>
      <point x="24" y="0" type="line"/>
      <point x="139" y="0" type="line"/>
    </contour>
  </outline>
</glyph>
<glyph name="ze-cy" format="1">
  <advance width="600"/>
  <unicode hex="0437"/>
  <outline>
    <contour>
      <point x="223" y="234" type="line"/>
      <point x="287" y="234"/>
      <point x="282" y="235"/>
      <point x="323" y="234" type="curve" smooth="yes"/>
      <point x="396" y="232"/>
      <point x="422" y="190"/>
      <point x="422" y="155" type="curve" smooth="yes"/>
      <point x="422" y="118"/>
      <point x="400" y="75"/>
      <point x="323" y="75" type="curve" smooth="yes"/>
      <point x="291" y="75"/>
      <point x="320" y="74"/>
      <point x="266" y="75" type="curve"/>
      <point x="267" y="0" type="line"/>
      <point x="318" y="0"/>
      <point x="304" y="0"/>
      <point x="341" y="0" type="curve" smooth="yes"/>
      <point x="439" y="0"/>
      <point x="519" y="56"/>
      <point x="519" y="154" type="curve" smooth="yes"/>
      <point x="519" y="247"/>
      <point x="442" y="310"/>
      <point x="341" y="310" type="curve" smooth="yes"/>
      <point x="298" y="310"/>
      <point x="242" y="310"/>
      <point x="223" y="310" type="curve"/>
    </contour>
    <contour>
      <point x="263" y="454" type="line"/>
      <point x="327" y="454"/>
      <point x="304" y="454"/>
      <point x="314" y="454" type="curve" smooth="yes"/>
      <point x="358" y="454"/>
      <point x="394" y="428"/>
      <point x="394" y="382" type="curve" smooth="yes"/>
      <point x="394" y="295"/>
      <point x="357" y="310"/>
      <point x="226" y="310" type="curve"/>
      <point x="226" y="234" type="line"/>
      <point x="277" y="234"/>
      <point x="244" y="258"/>
      <point x="281" y="258" type="curve" smooth="yes"/>
      <point x="389" y="258"/>
      <point x="488" y="294"/>
      <point x="488" y="382" type="curve" smooth="yes"/>
      <point x="488" y="463"/>
      <point x="442" y="530"/>
      <point x="332" y="530" type="curve" smooth="yes"/>
      <point x="289" y="530"/>
      <point x="318" y="530"/>
      <point x="298" y="530" type="curve"/>
    </contour>
    <contour>
      <point x="148" y="155"/>
      <point x="127" y="155"/>
      <point x="98" y="155" type="curve"/>
      <point x="98" y="57"/>
      <point x="178" y="0"/>
      <point x="276" y="0" type="curve" smooth="yes"/>
      <point x="313" y="0"/>
      <point x="290" y="0"/>
      <point x="341" y="0" type="curve"/>
      <point x="341" y="75" type="line"/>
      <point x="287" y="74"/>
      <point x="326" y="75"/>
      <point x="294" y="75" type="curve" smooth="yes"/>
      <point x="217" y="75"/>
      <point x="195" y="118"/>
      <point x="195" y="155" type="curve"/>
    </contour>
    <contour>
      <point x="160" y="375"/>
      <point x="207" y="375" type="curve"/>
      <point x="207" y="413"/>
      <point x="229" y="454"/>
      <point x="306" y="454" type="curve" smooth="yes"/>
      <point x="323" y="454"/>
      <point x="323" y="455"/>
      <point x="323" y="455" type="curve" smooth="yes"/>
      <point x="323" y="530" type="line"/>
      <point x="272" y="530"/>
      <point x="325" y="530"/>
      <point x="288" y="530" type="curve" smooth="yes"/>
      <point x="190" y="530"/>
      <point x="110" y="473"/>
      <point x="110" y="375" type="curve"/>
      <point x="139" y="375"/>
    </contour>
  </outline>
</glyph>
<glyph name="ii-cy" format="1">
  <advance width="581"/>
  <unicode hex="0438"/>
  <outline>
    <contour>
      <point x="60" y="530" type="line"/>
      <point x="60" y="1" type="line"/>
      <point x="160" y="1" type="line"/>
      <point x="160" y="530" type="line"/>
    </contour>
    <contour>
      <point x="420" y="530" type="line"/>
      <point x="420" y="1" type="line"/>
      <point x="520" y="1" type="line"/>
      <point x="520" y="530" type="line"/>
    </contour>
    <contour>
      <point x="160" y="127" type="line"/>
      <point x="182" y="1" type="line"/>
      <point x="420" y="404" type="line"/>
      <point x="398" y="530" type="line"/>
    </contour>
    <contour>
      <point x="398" y="530" type="line"/>
      <point x="398" y="404" type="line"/>
      <point x="520" y="404" type="line"/>
      <point x="520" y="530" type="line"/>
    </contour>
    <contour>
      <point x="60" y="127" type="line"/>
      <point x="60" y="1" type="line"/>
      <point x="182" y="1" type="line"/>
      <point x="182" y="127" type="line"/>
    </contour>
  </outline>
</glyph>
<glyph name="iishort-cy" format="1">
  <advance width="583"/>
  <unicode hex="0439"/>
  <outline>
    <contour>
      <point x="60" y="1" type="line"/>
      <point x="160" y="1" type="line"/>
      <point x="160" y="530" type="line"/>
      <point x="60" y="530" type="line"/>
    </contour>
    <contour>
      <point x="60" y="1" type="line"/>
      <point x="182" y="1" type="line"/>
      <point x="182" y="127" type="line"/>
      <point x="60" y="127" type="line"/>
    </contour>
    <contour>
      <point x="151" y="749" type="line"/>
      <point x="159" y="677"/>
      <point x="220" y="620"/>
      <point x="295" y="620" type="curve" smooth="yes"/>
      <point x="369" y="620"/>
      <point x="430" y="677"/>
      <point x="438" y="749" type="curve"/>
      <point x="360" y="749" type="line"/>
      <point x="354" y="709"/>
      <point x="328" y="681"/>
      <point x="295" y="681" type="curve" smooth="yes"/>
      <point x="261" y="681"/>
      <point x="235" y="709"/>
      <point x="229" y="749" type="curve"/>
    </contour>
    <contour>
      <point x="160" y="127" type="line"/>
      <point x="182" y="1" type="line"/>
      <point x="422" y="404" type="line"/>
      <point x="400" y="530" type="line"/>
      <point x="400" y="404" type="line"/>
      <point x="522" y="404" type="line"/>
      <point x="522" y="530" type="line"/>
      <point x="422" y="530" type="line"/>
      <point x="422" y="1" type="line"/>
      <point x="522" y="1" type="line"/>
      <point x="522" y="530" type="line"/>
      <point x="400" y="530" type="line"/>
    </contour>
  </outline>
</glyph>
<glyph name="ka-cy" format="1">
  <advance width="530"/>
  <unicode hex="043A"/>
  <outline>
    <contour>
      <point x="60" y="0" type="line"/>
      <point x="160" y="0" type="line"/>
      <point x="160" y="153" type="line"/>
      <point x="249" y="253" type="line"/>
      <point x="382" y="0" type="line"/>
      <point x="498" y="0" type="line"/>
      <point x="318" y="330" type="line"/>
      <point x="498" y="530" type="line"/>
      <point x="376" y="530" type="line"/>
      <point x="160" y="283" type="line"/>
      <point x="160" y="530" type="line"/>
      <point x="60" y="530" type="line"/>
    </contour>
  </outline>
</glyph>
<glyph name="el-cy" format="1">
  <advance width="586"/>
  <unicode hex="043B"/>
  <outline>
    <contour>
      <point x="50" y="80" type="curve"/>
      <point x="50" y="-12" type="line"/>
      <point x="51" y="-12"/>
      <point x="51" y="-12"/>
      <point x="52" y="-12" type="curve" smooth="yes"/>
      <point x="211" y="-12"/>
      <point x="249" y="48"/>
      <point x="249" y="530" type="curve"/>
      <point x="159" y="530" type="line"/>
      <point x="146" y="119"/>
      <point x="141" y="80"/>
      <point x="52" y="80" type="curve" smooth="yes"/>
      <point x="51" y="80"/>
      <point x="51" y="80"/>
    </contour>
    <contour>
      <point x="232" y="530" type="line"/>
      <point x="227" y="436" type="line"/>
      <point x="431" y="436" type="line"/>
      <point x="431" y="0" type="line"/>
      <point x="523" y="0" type="line"/>
      <point x="523" y="530" type="line"/>
    </contour>
  </outline>
</glyph>
<glyph name="em-cy" format="1">
  <advance width="609"/>
  <unicode hex="043C"/>
  <outline>
    <contour>
      <point x="53" y="530" type="line"/>
      <point x="53" y="1" type="line"/>
      <point x="150" y="1" type="line"/>
      <point x="150" y="530" type="line"/>
    </contour>
    <contour>
      <point x="467" y="530" type="line"/>
      <point x="467" y="1" type="line"/>
      <point x="564" y="1" type="line"/>
      <point x="564" y="530" type="line"/>
    </contour>
    <contour>
      <point x="200" y="530" type="line"/>
      <point x="103" y="530" type="line"/>
      <point x="261" y="0" type="line"/>
      <point x="358" y="0" type="line"/>
    </contour>
    <contour>
      <point x="418" y="530" type="line"/>
      <point x="260" y="0" type="line"/>
      <point x="357" y="0" type="line"/>
      <point x="515" y="530" type="line"/>
    </contour>
  </outline>
</glyph>
<glyph name="pe-cy" format="1">
  <advance width="600"/>
  <unicode hex="043F"/>
  <outline>
    <contour>
      <point x="89" y="530" type="line"/>
      <point x="89" y="2" type="line"/>
      <point x="186" y="2" type="line"/>
      <point x="186" y="530" type="line"/>
    </contour>
    <contour>
      <point x="407" y="530" type="line"/>
      <point x="407" y="2" type="line"/>
      <point x="504" y="2" type="line"/>
      <point x="504" y="530" type="line"/>
    </contour>
    <contour>
      <point x="144" y="530" type="line"/>
      <point x="144" y="439" type="line"/>
      <point x="447" y="439" type="line"/>
      <point x="447" y="530" type="line"/>
    </contour>
  </outline>
</glyph>
<glyph name="te-cy" format="1">
  <advance width="527"/>
  <unicode hex="0442"/>
  <outline>
    <contour>
      <point x="212" y="530" type="line"/>
      <point x="212" y="2" type="line"/>
      <point x="309" y="2" type="line"/>
      <point x="309" y="530" type="line"/>
    </contour>
    <contour>
      <point x="50" y="530" type="line"/>
      <point x="50" y="438" type="line"/>
      <point x="471" y="438" type="line"/>
      <point x="471" y="530" type="line"/>
    </contour>
  </outline>
</glyph>
<glyph name="ef-cy" format="1">
  <advance width="829"/>
  <unicode hex="0444"/>
  <outline>
    <contour>
      <point x="250" y="-12" type="curve" smooth="yes"/>
      <point x="312" y="-12"/>
      <point x="354" y="11"/>
      <point x="364" y="45" type="curve"/>
      <point x="364" y="-140" type="line"/>
      <point x="464" y="380" type="line"/>
      <point x="364" y="485" type="line"/>
      <point x="343" y="526"/>
      <point x="308" y="542"/>
      <point x="250" y="542" type="curve" smooth="yes"/>
      <point x="105" y="542"/>
      <point x="49" y="428"/>
      <point x="49" y="279" type="curve" smooth="yes"/>
      <point x="49" y="251" type="line" smooth="yes"/>
      <point x="49" y="102"/>
      <point x="105" y="-12"/>
    </contour>
    <contour>
      <point x="364" y="373" type="curve"/>
      <point x="364" y="157" type="line"/>
      <point x="358" y="118"/>
      <point x="340" y="76"/>
      <point x="276" y="76" type="curve" smooth="yes"/>
      <point x="189" y="76"/>
      <point x="150" y="143"/>
      <point x="150" y="251" type="curve" smooth="yes"/>
      <point x="150" y="279" type="line" smooth="yes"/>
      <point x="150" y="386"/>
      <point x="189" y="454"/>
      <point x="276" y="454" type="curve" smooth="yes"/>
      <point x="340" y="454"/>
      <point x="356" y="411"/>
    </contour>
    <contour>
      <point x="364" y="750" type="line"/>
      <point x="364" y="-200" type="line"/>
      <point x="464" y="-200" type="line"/>
      <point x="464" y="750" type="line"/>
    </contour>
    <contour>
      <point x="578" y="-12" type="curve" smooth="yes"/>
      <point x="723" y="-12"/>
      <point x="779" y="102"/>
      <point x="779" y="251" type="curve" smooth="yes"/>
      <point x="779" y="279" type="line" smooth="yes"/>
      <point x="779" y="428"/>
      <point x="723" y="542"/>
      <point x="578" y="542" type="curve" smooth="yes"/>
      <point x="520" y="542"/>
      <point x="485" y="526"/>
      <point x="464" y="485" type="curve"/>
      <point x="364" y="380" type="line"/>
      <point x="464" y="-140" type="line"/>
      <point x="464" y="45" type="line"/>
      <point x="474" y="11"/>
      <point x="516" y="-12"/>
    </contour>
    <contour>
      <point x="464" y="373" type="line"/>
      <point x="472" y="411"/>
      <point x="488" y="454"/>
      <point x="552" y="454" type="curve" smooth="yes"/>
      <point x="639" y="454"/>
      <point x="678" y="386"/>
      <point x="678" y="279" type="curve" smooth="yes"/>
      <point x="678" y="251" type="line" smooth="yes"/>
      <point x="678" y="143"/>
      <point x="639" y="76"/>
      <point x="552" y="76" type="curve" smooth="yes"/>
      <point x="488" y="76"/>
      <point x="470" y="118"/>
      <point x="464" y="157" type="curve"/>
    </contour>
  </outline>
</glyph>
<glyph name="tse-cy" format="1">
  <advance width="581"/>
  <unicode hex="0446"/>
  <outline>
    <contour>
      <point x="60" y="1" type="line"/>
      <point x="157" y="1" type="line"/>
      <point x="157" y="530" type="line"/>
      <point x="60" y="530" type="line"/>
    </contour>
    <contour>
      <point x="383" y="1" type="line"/>
      <point x="480" y="1" type="line"/>
      <point x="480" y="530" type="line"/>
      <point x="383" y="530" type="line"/>
    </contour>
    <contour>
      <point x="145" y="1" type="line"/>
      <point x="518" y="1" type="line"/>
      <point x="518" y="93" type="line"/>
      <point x="145" y="93" type="line"/>
    </contour>
    <contour>
      <point x="457" y="105" type="line"/>
      <point x="457" y="-106" type="line"/>
      <point x="551" y="-106" type="line"/>
      <point x="551" y="105" type="line"/>
    </contour>
  </outline>
</glyph>
<glyph name="che-cy" format="1">
  <advance width="600"/>
  <unicode hex="0447"/>
  <outline>
    <contour>
      <point x="385" y="2" type="line"/>
      <point x="485" y="2" type="line"/>
      <point x="485" y="530" type="line"/>
      <point x="385" y="530" type="line"/>
      <point x="385" y="326" type="line"/>
      <point x="367" y="297"/>
      <point x="329" y="255"/>
      <point x="257" y="255" type="curve" smooth="yes"/>
      <point x="192" y="255"/>
      <point x="157" y="292"/>
      <point x="157" y="358" type="curve" smooth="yes"/>
      <point x="157" y="530" type="line"/>
      <point x="58" y="530" type="line"/>
      <point x="58" y="342" type="line" smooth="yes"/>
      <point x="58" y="244"/>
      <point x="109" y="167"/>
      <point x="220" y="167" type="curve" smooth="yes"/>
      <point x="299" y="167"/>
      <point x="352" y="197"/>
      <point x="385" y="238" type="curve"/>
    </contour>
  </outline>
</glyph>
<glyph name="sha-cy" format="1">
  <advance width="779"/>
  <unicode hex="0448"/>
  <outline>
    <contour>
      <point x="60" y="2" type="line"/>
      <point x="157" y="2" type="line"/>
      <point x="157" y="530" type="line"/>
      <point x="60" y="530" type="line"/>
    </contour>
    <contour>
      <point x="622" y="2" type="line"/>
      <point x="719" y="2" type="line"/>
      <point x="719" y="530" type="line"/>
      <point x="622" y="530" type="line"/>
    </contour>
    <contour>
      <point x="145" y="2" type="line"/>
      <point x="632" y="2" type="line"/>
      <point x="632" y="93" type="line"/>
      <point x="145" y="93" type="line"/>
    </contour>
    <contour>
      <point x="340" y="2" type="line"/>
      <point x="437" y="2" type="line"/>
      <point x="437" y="530" type="line"/>
      <point x="340" y="530" type="line"/>
    </contour>
  </outline>
</glyph>
<glyph name="shcha-cy" format="1">
  <advance width="850"/>
  <unicode hex="0449"/>
  <outline>
    <contour>
      <point x="60" y="1" type="line"/>
      <point x="157" y="1" type="line"/>
      <point x="157" y="530" type="line"/>
      <point x="60" y="530" type="line"/>
    </contour>
    <contour>
      <point x="622" y="1" type="line"/>
      <point x="719" y="1" type="line"/>
      <point x="719" y="530" type="line"/>
      <point x="622" y="530" type="line"/>
    </contour>
    <contour>
      <point x="145" y="1" type="line"/>
      <point x="632" y="1" type="line"/>
      <point x="632" y="93" type="line"/>
      <point x="145" y="93" type="line"/>
    </contour>
    <contour>
      <point x="340" y="1" type="line"/>
      <point x="437" y="1" type="line"/>
      <point x="437" y="530" type="line"/>
      <point x="340" y="530" type="line"/>
    </contour>
    <contour>
      <point x="696" y="105" type="line"/>
      <point x="696" y="-106" type="line"/>
      <point x="790" y="-106" type="line"/>
      <point x="790" y="105" type="line"/>
    </contour>
  </outline>
</glyph>
<glyph name="hardsign-cy" format="1">
  <advance width="565"/>
  <unicode hex="044A"/>
  <outline>
    <contour>
      <point x="95" y="1" type="line"/>
      <point x="192" y="1" type="line"/>
      <point x="192" y="530" type="line"/>
      <point x="95" y="530" type="line"/>
    </contour>
    <contour>
      <point x="158" y="258" type="line"/>
      <point x="222" y="258"/>
      <point x="267" y="259"/>
      <point x="308" y="258" type="curve" smooth="yes"/>
      <point x="381" y="256"/>
      <point x="407" y="202"/>
      <point x="407" y="167" type="curve" smooth="yes"/>
      <point x="407" y="130"/>
      <point x="385" y="77"/>
      <point x="308" y="77" type="curve" smooth="yes"/>
      <point x="276" y="77"/>
      <point x="215" y="77"/>
      <point x="161" y="77" type="curve"/>
      <point x="161" y="1" type="line"/>
      <point x="212" y="1"/>
      <point x="289" y="2"/>
      <point x="326" y="2" type="curve" smooth="yes"/>
      <point x="424" y="2"/>
      <point x="504" y="68"/>
      <point x="504" y="166" type="curve" smooth="yes"/>
      <point x="504" y="265"/>
      <point x="427" y="334"/>
      <point x="326" y="334" type="curve" smooth="yes"/>
      <point x="283" y="334"/>
      <point x="178" y="334"/>
      <point x="158" y="334" type="curve"/>
    </contour>
    <contour>
      <point x="20" y="530" type="line"/>
      <point x="20" y="454" type="line"/>
      <point x="124" y="454" type="line"/>
      <point x="124" y="530" type="line"/>
    </contour>
  </outline>
</glyph>
<glyph name="yeru-cy" format="1">
  <advance width="677"/>
  <unicode hex="044B"/>
  <outline>
    <contour>
      <point x="60" y="1" type="line"/>
      <point x="157" y="1" type="line"/>
      <point x="157" y="530" type="line"/>
      <point x="60" y="530" type="line"/>
    </contour>
    <contour>
      <point x="123" y="258" type="line"/>
      <point x="187" y="258"/>
      <point x="232" y="259"/>
      <point x="273" y="258" type="curve" smooth="yes"/>
      <point x="346" y="256"/>
      <point x="372" y="202"/>
      <point x="372" y="167" type="curve" smooth="yes"/>
      <point x="372" y="130"/>
      <point x="350" y="77"/>
      <point x="273" y="77" type="curve" smooth="yes"/>
      <point x="241" y="77"/>
      <point x="180" y="77"/>
      <point x="126" y="77" type="curve"/>
      <point x="126" y="1" type="line"/>
      <point x="177" y="1"/>
      <point x="254" y="2"/>
      <point x="291" y="2" type="curve" smooth="yes"/>
      <point x="389" y="2"/>
      <point x="469" y="68"/>
      <point x="469" y="166" type="curve" smooth="yes"/>
      <point x="469" y="265"/>
      <point x="392" y="334"/>
      <point x="291" y="334" type="curve" smooth="yes"/>
      <point x="248" y="334"/>
      <point x="143" y="334"/>
      <point x="123" y="334" type="curve"/>
    </contour>
    <contour>
      <point x="517" y="1" type="line"/>
      <point x="616" y="1" type="line"/>
      <point x="616" y="530" type="line"/>
      <point x="517" y="530" type="line"/>
    </contour>
  </outline>
</glyph>
<glyph name="softsign-cy" format="1">
  <advance width="600"/>
  <unicode hex="044C"/>
  <outline>
    <contour>
      <point x="60" y="1" type="line"/>
      <point x="157" y="1" type="line"/>
      <point x="157" y="530" type="line"/>
      <point x="60" y="530" type="line"/>
    </contour>
    <contour>
      <point x="153" y="258" type="line"/>
      <point x="217" y="258"/>
      <point x="262" y="259"/>
      <point x="303" y="258" type="curve" smooth="yes"/>
      <point x="376" y="256"/>
      <point x="402" y="202"/>
      <point x="402" y="167" type="curve" smooth="yes"/>
      <point x="402" y="130"/>
      <point x="380" y="77"/>
      <point x="303" y="77" type="curve" smooth="yes"/>
      <point x="271" y="77"/>
      <point x="210" y="77"/>
      <point x="156" y="77" type="curve"/>
      <point x="156" y="1" type="line"/>
      <point x="207" y="1"/>
      <point x="284" y="2"/>
      <point x="321" y="2" type="curve" smooth="yes"/>
      <point x="419" y="2"/>
      <point x="499" y="68"/>
      <point x="499" y="166" type="curve" smooth="yes"/>
      <point x="499" y="265"/>
      <point x="422" y="334"/>
      <point x="321" y="334" type="curve" smooth="yes"/>
      <point x="278" y="334"/>
      <point x="173" y="334"/>
      <point x="153" y="334" type="curve"/>
    </contour>
  </outline>
</glyph>
<glyph name="ereversed-cy" format="1">
  <advance width="548"/>
  <unicode hex="044D"/>
  <outline>
    <contour>
      <point x="50" y="379" type="curve"/>
      <point x="47" y="379"/>
      <point x="126" y="379"/>
      <point x="149" y="379" type="curve" smooth="yes"/>
      <point x="149" y="379"/>
      <point x="167" y="462"/>
      <point x="274" y="462" type="curve" smooth="yes"/>
      <point x="360" y="462"/>
      <point x="405" y="393"/>
      <point x="405" y="303" type="curve"/>
      <point x="212" y="303" type="line"/>
      <point x="212" y="227" type="line"/>
      <point x="405" y="227" type="line"/>
      <point x="401" y="124"/>
      <point x="357" y="68"/>
      <point x="266" y="68" type="curve" smooth="yes"/>
      <point x="178" y="68"/>
      <point x="138" y="122"/>
      <point x="138" y="170" type="curve"/>
      <point x="42" y="170" type="line"/>
      <point x="42" y="166" type="line" smooth="yes"/>
      <point x="42" y="77"/>
      <point x="116" y="-12"/>
      <point x="267" y="-12" type="curve" smooth="yes"/>
      <point x="433" y="-12"/>
      <point x="506" y="104"/>
      <point x="506" y="253" type="curve" smooth="yes"/>
      <point x="506" y="277" type="line" smooth="yes"/>
      <point x="506" y="426"/>
      <point x="432" y="542"/>
      <point x="272" y="542" type="curve" smooth="yes"/>
      <point x="160" y="542"/>
      <point x="78" y="475"/>
    </contour>
  </outline>
</glyph>
<glyph name="iu-cy" format="1">
  <advance width="742"/>
  <unicode hex="044E"/>
  <outline>
    <contour>
      <point x="455" y="-12" type="curve" smooth="yes"/>
      <point x="616" y="-12"/>
      <point x="687" y="102"/>
      <point x="687" y="251" type="curve" smooth="yes"/>
      <point x="687" y="279" type="line" smooth="yes"/>
      <point x="687" y="428"/>
      <point x="616" y="542"/>
      <point x="455" y="542" type="curve" smooth="yes"/>
      <point x="294" y="542"/>
      <point x="223" y="428"/>
      <point x="223" y="279" type="curve" smooth="yes"/>
      <point x="223" y="251" type="line" smooth="yes"/>
      <point x="223" y="102"/>
      <point x="294" y="-12"/>
    </contour>
    <contour>
      <point x="455" y="76" type="curve" smooth="yes"/>
      <point x="365" y="76"/>
      <point x="324" y="145"/>
      <point x="324" y="251" type="curve" smooth="yes"/>
      <point x="324" y="279" type="line" smooth="yes"/>
      <point x="324" y="385"/>
      <point x="365" y="454"/>
      <point x="455" y="454" type="curve" smooth="yes"/>
      <point x="545" y="454"/>
      <point x="586" y="385"/>
      <point x="586" y="279" type="curve" smooth="yes"/>
      <point x="586" y="251" type="line" smooth="yes"/>
      <point x="586" y="145"/>
      <point x="545" y="76"/>
    </contour>
    <contour>
      <point x="60" y="530" type="line"/>
      <point x="60" y="2" type="line"/>
      <point x="157" y="2" type="line"/>
      <point x="157" y="530" type="line"/>
    </contour>
    <contour>
      <point x="115" y="312" type="line"/>
      <point x="115" y="220" type="line"/>
      <point x="296" y="220" type="line"/>
      <point x="296" y="312" type="line"/>
    </contour>
  </outline>
</glyph>
<glyph name="ia-cy" format="1">
  <advance width="600"/>
  <unicode hex="044F"/>
  <outline>
    <contour>
      <point x="488" y="1" type="line"/>
      <point x="488" y="530" type="line"/>
      <point x="391" y="530" type="line"/>
      <point x="391" y="1" type="line"/>
    </contour>
    <contour>
      <point x="282" y="255" type="line"/>
      <point x="182" y="255" type="line"/>
      <point x="30" y="0" type="line"/>
      <point x="135" y="0" type="line"/>
    </contour>
    <contour>
      <point x="408" y="297" type="line"/>
      <point x="344" y="297"/>
      <point x="279" y="296"/>
      <point x="238" y="297" type="curve" smooth="yes"/>
      <point x="165" y="299"/>
      <point x="139" y="341"/>
      <point x="139" y="376" type="curve" smooth="yes"/>
      <point x="139" y="413"/>
      <point x="161" y="454"/>
      <point x="238" y="454" type="curve" smooth="yes"/>
      <point x="270" y="454"/>
      <point x="351" y="454"/>
      <point x="405" y="454" type="curve"/>
      <point x="405" y="530" type="line"/>
      <point x="354" y="530"/>
      <point x="257" y="529"/>
      <point x="220" y="529" type="curve" smooth="yes"/>
      <point x="122" y="529"/>
      <point x="42" y="475"/>
      <point x="42" y="377" type="curve" smooth="yes"/>
      <point x="42" y="284"/>
      <point x="119" y="221"/>
      <point x="220" y="221" type="curve" smooth="yes"/>
      <point x="263" y="221"/>
      <point x="388" y="221"/>
      <point x="408" y="221" type="curve"/>
    </contour>
    <contour>
      <point x="45" y="25" type="line"/>
      <point x="38" y="13"/>
      <point x="32" y="6"/>
      <point x="22" y="3" type="curve"/>
      <point x="22" y="0" type="line"/>
      <point x="40" y="0" type="line"/>
      <point x="61" y="30" type="line"/>
    </contour>
  </outline>
</glyph>
<glyph name="io-cy" format="1">
  <advance width="600"/>
  <unicode hex="0451"/>
  <outline>
    <contour>
      <point x="229" y="730" type="line"/>
      <point x="133" y="730" type="line"/>
      <point x="133" y="615" type="line"/>
      <point x="229" y="615" type="line"/>
    </contour>
    <contour>
      <point x="413" y="731" type="line"/>
      <point x="317" y="731" type="line"/>
      <point x="317" y="616" type="line"/>
      <point x="413" y="616" type="line"/>
    </contour>
    <component base="ie-cy"/>
  </outline>
</glyph>
<glyph name="e-cy" format="1">
  <advance width="600"/>
  <unicode hex="0454"/>
  <outline>
    <contour>
      <point x="522" y="379" type="curve"/>
      <point x="494" y="475"/>
      <point x="412" y="542"/>
      <point x="300" y="542" type="curve" smooth="yes"/>
      <point x="140" y="542"/>
      <point x="66" y="426"/>
      <point x="66" y="277" type="curve" smooth="yes"/>
      <point x="66" y="253" type="line" smooth="yes"/>
      <point x="66" y="104"/>
      <point x="139" y="-12"/>
      <point x="305" y="-12" type="curve" smooth="yes"/>
      <point x="456" y="-12"/>
      <point x="530" y="77"/>
      <point x="530" y="166" type="curve" smooth="yes"/>
      <point x="530" y="170" type="line"/>
      <point x="434" y="170" type="line"/>
      <point x="434" y="122"/>
      <point x="394" y="68"/>
      <point x="306" y="68" type="curve" smooth="yes"/>
      <point x="215" y="68"/>
      <point x="171" y="124"/>
      <point x="167" y="227" type="curve"/>
      <point x="360" y="227" type="line"/>
      <point x="360" y="303" type="line"/>
      <point x="167" y="303" type="line"/>
      <point x="167" y="393"/>
      <point x="212" y="462"/>
      <point x="298" y="462" type="curve" smooth="yes"/>
      <point x="405" y="462"/>
      <point x="423" y="379"/>
      <point x="423" y="379" type="curve" smooth="yes"/>
      <point x="446" y="379"/>
      <point x="525" y="379"/>
    </contour>
  </outline>
</glyph>
<glyph name="yi-cy" format="1">
  <advance width="600"/>
  <unicode hex="0457"/>
  <outline>
    <contour>
      <point x="249" y="0" type="line"/>
      <point x="349" y="0" type="line"/>
      <point x="349" y="530" type="line"/>
      <point x="249" y="530" type="line"/>
    </contour>
    <contour>
      <point x="265" y="754" type="line"/>
      <point x="151" y="754" type="line"/>
      <point x="151" y="640" type="line"/>
      <point x="265" y="640" type="line"/>
    </contour>
    <contour>
      <point x="449" y="754" type="line"/>
      <point x="335" y="754" type="line"/>
      <point x="335" y="640" type="line"/>
      <point x="449" y="640" type="line"/>
    </contour>
  </outline>
</glyph>
<glyph name="Gheupturn-cy" format="1">
  <advance width="519"/>
  <unicode hex="0490"/>
  <outline>
    <contour>
      <point x="486" y="780" type="line"/>
      <point x="67" y="780" type="line"/>
      <point x="67" y="0" type="line"/>
      <point x="171" y="0" type="line"/>
      <point x="171" y="688" type="line"/>
      <point x="486" y="688" type="line"/>
    </contour>
    <contour>
      <point x="392" y="879" type="line"/>
      <point x="392" y="688" type="line"/>
      <point x="486" y="688" type="line"/>
      <point x="486" y="879" type="line"/>
    </contour>
  </outline>
</glyph>
<glyph name="gheupturn-cy" format="1">
  <advance width="490"/>
  <unicode hex="0491"/>
  <outline>
    <contour>
      <point x="72" y="530" type="line"/>
      <point x="72" y="2" type="line"/>
      <point x="171" y="2" type="line"/>
      <point x="171" y="530" type="line"/>
    </contour>
    <contour>
      <point x="127" y="530" type="line"/>
      <point x="127" y="438" type="line"/>
      <point x="430" y="438" type="line"/>
      <point x="430" y="530" type="line"/>
    </contour>
    <contour>
      <point x="336" y="618" type="line"/>
      <point x="336" y="438" type="line"/>
      <point x="430" y="438" type="line"/>
      <point x="430" y="618" type="line"/>
    </contour>
  </outline>
</glyph>
<glyph name="dieresis.cap" format="1">
  <advance width="500"/>
  <outline>
    <contour>
      <point x="218" y="936" type="line"/>
      <point x="119" y="936" type="line"/>
      <point x="119" y="854" type="line"/>
      <point x="218" y="854" type="line"/>
    </contour>
    <contour>
      <point x="381" y="936" type="line"/>
      <point x="282" y="936" type="line"/>
      <point x="282" y="854" type="line"/>
      <point x="381" y="854" type="line"/>
    </contour>
  </outline>
</glyph>
<glyph name="hvostik" format="1">
  <advance width="748"/>
  <outline>
    <contour>
      <point x="688" y="105" type="line"/>
      <point x="657" y="-136" type="line"/>
      <point x="764" y="-136" type="line"/>
      <point x="795" y="105" type="line"/>
    </contour>
  </outline>
</glyph>
<glyph name="pe-cy.001" format="1">
  <advance width="600"/>
  <outline>
    <contour>
      <point x="89" y="530" type="line"/>
      <point x="89" y="2" type="line"/>
      <point x="186" y="2" type="line"/>
      <point x="186" y="530" type="line"/>
    </contour>
    <contour>
      <point x="407" y="530" type="line"/>
      <point x="407" y="2" type="line"/>
      <point x="504" y="2" type="line"/>
      <point x="504" y="530" type="line"/>
    </contour>
    <contour>
      <point x="144" y="530" type="line"/>
      <point x="144" y="439" type="line"/>
      <point x="447" y="439" type="line"/>
      <point x="447" y="530" type="line"/>
    </contour>
  </outline>
</glyph>
<glyph name="sha-cy.001" format="1">
  <advance width="779"/>
  <outline>
    <contour>
      <point x="60" y="2" type="line"/>
      <point x="157" y="2" type="line"/>
      <point x="157" y="530" type="line"/>
      <point x="60" y="530" type="line"/>
    </contour>
    <contour>
      <point x="622" y="2" type="line"/>
      <point x="719" y="2" type="line"/>
      <point x="719" y="530" type="line"/>
      <point x="622" y="530" type="line"/>
    </contour>
    <contour>
      <point x="145" y="2" type="line"/>
      <point x="632" y="2" type="line"/>
      <point x="632" y="93" type="line"/>
      <point x="145" y="93" type="line"/>
    </contour>
    <contour>
      <point x="340" y="2" type="line"/>
      <point x="437" y="2" type="line"/>
      <point x="437" y="530" type="line"/>
      <point x="340" y="530" type="line"/>
    </contour>
  </outline>
</glyph>
